# AST/ASF file generated using VICON BodyLanguage
# -----------------------------------------------
:version 1.10
:name VICON
:units
  mass 1.0
  length 0.45
  angle deg
:documentation
   .ast/.asf automatically generated from VICON data using
   VICON BodyBuilder and BodyLanguage model FoxedUp or BRILLIANT.MOD
:root
   order TX TY TZ RX RY RZ
   axis XYZ
   position 0 0 0  
   orientation 0 0 0 
:bonedata
  begin
     id 1 
     name lhipjoint
     direction 0.711131 -0.61297 0.344326 
     length 2.29162 
     axis 0 0 0  XYZ
  end
  begin
     id 2 
     name lfemur
     direction 0.34202 -0.939693 0  
     length 6.71424  
     axis 0 0 20  XYZ
    dof rx ry rz
    limits (-160.0 20.0)
           (-70.0 70.0)
           (-60.0 70.0)
  end
  begin
     id 3 
     name ltibia
     direction 0.34202 -0.939693 0   
     length 6.7087   
     axis 0 0 20   XYZ
    dof rx
    limits (-10.0 170.0)
  end
  begin
     id 4 
     name lfoot
     direction 0.0230374 -0.0632947 0.997729   
     length 1.56743   
     axis -90 7.62852e-016 20   XYZ
    dof rx rz
    limits (-45.0 90.0)
           (-70.0 20.0)
  end
  begin
     id 5 
     name ltoes
     direction 1.53585e-011 -4.21885e-011 1   
     length 0.802914   
     axis -90 7.62852e-016 20   XYZ
    dof rx
    limits (-90.0 20.0)
  end
  begin
     id 6 
     name rhipjoint
     direction -0.733192 -0.592884 0.333043   
     length 2.36925  
     axis 0 0 0  XYZ 
  end
  begin
     id 7 
     name rfemur
     direction -0.34202 -0.939693 0   
     length 6.67027   
     axis 0 0 -20   XYZ
    dof rx ry rz
    limits (-160.0 20.0)
           (-70.0 70.0)
           (-70.0 60.0)
  end
  begin
     id 8 
     name rtibia
     direction -0.34202 -0.939693 0   
     length 6.6862   
     axis 0 0 -20   XYZ
    dof rx
    limits (-10.0 170.0)
 end
 begin
     id 9 
     name rfoot
     direction -0.0949739 -0.260939 0.960672   
     length 1.67698  
     axis -90 -7.62852e-016 -20   XYZ
    dof rx rz
    limits (-45.0 90.0)
           (-20.0 70.0)
  end
  begin
     id 10 
     name rtoes
     direction -1.5353e-011 -4.21868e-011 1   
     length 0.846298   
     axis -90 -7.62852e-016 -20   XYZ
    dof rx
    limits (-90.0 20.0)
  end
  begin
     id 11 
     name lowerback
     direction -0.0206828 0.999785 -0.00109866   
     length 2.04382   
     axis 0 0 0   XYZ
    dof rx ry rz
    limits (-20.0 45.0)
           (-30.0 30.0)
           (-30.0 30.0)
  end
  begin
     id 12 
     name upperback
     direction -0.0105003 0.999727 -0.0208904   
     length 2.04538   
     axis 0 0 0   XYZ
    dof rx ry rz
    limits (-20.0 45.0)
           (-30.0 30.0)
           (-30.0 30.0)
  end
  begin
     id 13 
     name thorax
     direction -0.000416255 0.999808 -0.0196023   
     length 2.0399   
     axis 0 0 0   XYZ
    dof rx ry rz
    limits (-20.0 45.0)
           (-30.0 30.0)
           (-30.0 30.0)
  end
  begin
     id 14 
     name lowerneck
     direction 0.0627861 0.989205 0.13241   
     length 1.46207   
     axis 0 0 0   XYZ
    dof rx ry rz
    limits (-20.0 45.0)
           (-30.0 30.0)
           (-30.0 30.0)
  end
  begin
     id 15 
     name upperneck
     direction 0.00627179 0.994526 0.104303   
     length 1.41419   
     axis 0 0 0   XYZ
    dof rx ry rz
    limits (-20.0 45.0)
           (-30.0 30.0)
           (-30.0 30.0)
  end
  begin
     id 16
     name head
     direction -0.00443838 0.999688 0.0245968  
     length 1.50718  
     axis 0 0 0   XYZ
    dof rx ry rz
    limits (-20.0 45.0)
           (-30.0 30.0)
           (-30.0 30.0)
  end
  begin
     id 17 
     name lclavicle
     direction 0.758742 0.650995 -0.0227258  
     length 2.86888  
     axis 0 0 0   XYZ
    dof ry rz
    limits (-20.0 10.0)
           (0.0 20.0)
  end
  begin
     id 18 
     name lhumerus
     direction 1 -4.48962e-011 1.06664e-027   
     length 4.65776   
     axis -180 -30 -90   XYZ
    dof rx ry rz
    limits (-60.0 90.0)
           (-90.0 90.0)
           (-90.0 90.0)
  end
  begin
     id 19
     name lradius
     direction 1 -4.48968e-011 1.40404e-026   
     length 3.55539   
     axis -180 -30 -90   XYZ
    dof rx
    limits (-10.0 170.0)
  end
  begin
     id 20
     name lwrist
     direction 1 -4.48976e-011 3.32647e-026   
     length 1.77769   
     axis -2.20186e-014 90 90   XYZ
    dof ry
    limits (-180.0 0.0)
 end
  begin
     id 21 
     name lhand
     direction 1 -4.48982e-011 6.65293e-026   
     length 0.707264   
     axis -4.24514e-014 90 90   XYZ
    dof rx rz
    limits (-90.0 90.0)
           (-45.0 45.0)
  end
  begin
     id 22 
     name lfingers
     direction 1 -4.48966e-011 1.33059e-025   
     length 0.570215   
     axis -8.49028e-014 90 90   XYZ
    dof rx
    limits (0.0 90.0)
  end
  begin
     id 23
     name lthumb
     direction 0.707107 -6.3493e-011 0.707107   
     length 0.818718   
     axis -90 45 2.85299e-015   XYZ
    dof rx rz
    limits (-45.0 45.0)
           (-45.0 45.0)
  end
  begin
     id 24 
     name rclavicle
     direction -0.870343 0.482028 -0.100759   
     length 3.2251  
     axis 0 0 0   XYZ 
    dof ry rz
    limits (-10.0 20.0)
           (-20.0 0.0)
  end
  begin
     id 25 
     name rhumerus
     direction -1 -4.48974e-011 -9.45849e-028  
     length 4.71925   
     axis -180 30 90   XYZ
    dof rx ry rz
    limits (-90.0 60.0)
           (-90.0 90.0)
           (-90.0 90.0)
  end
  begin
     id 26 
     name rradius
     direction -1 -4.48965e-011 1.17607e-026   
     length 3.5699   
     axis -180 30 90   XYZ
    dof rx
    limits (-10.0 170.0)
  end
  begin
     id 27 
     name rwrist
     direction -1 -4.48968e-011 3.32647e-026   
     length 1.78495   
     axis -2.20186e-014 -90 -90   XYZ
    dof ry
    limits (-180.0 0.0)
  end
  begin
     id 28
     name rhand
     direction -1 -4.48995e-011 6.65293e-026   
     length 0.507757   
     axis -4.24514e-014 -90 -90   XYZ
    dof rx rz
    limits (-90.0 90.0)
           (-45.0 45.0)
  end
  begin
     id 29
     name rfingers
     direction -1 -4.48864e-011 1.33059e-025   
     length 0.409367   
     axis -8.49028e-014 -90 -90   XYZ
    dof rx
    limits (0.0 90.0)
  end
  begin
     id 30
     name rthumb
     direction -0.707107 -6.3494e-011 0.707107   
     length 0.587771   
     axis -90 -45 -2.85299e-015   XYZ
    dof rx rz
    limits (-45.0 45.0)
           (-45.0 45.0)
  end
:hierarchy
  begin
    root lhipjoint rhipjoint lowerback
    lhipjoint lfemur
    lfemur ltibia
    ltibia lfoot
    lfoot ltoes
    rhipjoint rfemur
    rfemur rtibia
    rtibia rfoot
    rfoot rtoes
    lowerback upperback
    upperback thorax
    thorax lowerneck lclavicle rclavicle
    lowerneck upperneck
    upperneck head
    lclavicle lhumerus
    lhumerus lradius
    lradius lwrist
    lwrist lhand lthumb
    lhand lfingers
    rclavicle rhumerus
    rhumerus rradius
    rradius rwrist
    rwrist rhand rthumb
    rhand rfingers
  end

#!OML:ASF E:\Steps\Project 1\Capture day 1\Session 2\Subject.ASF
:FULLY-SPECIFIED
:DEGREES
17
root 16.612 19.6835 20.7246 -152.946 -3.98261 177.552
lowerback -30.296 -2.16071 -6.99183
upperback -1.56264 -1.17692 0.145745
thorax 14.2585 -1.26902 3.40874
lowerneck -4.8047 -1.16147 -1.5648
upperneck 2.66357 -1.55884 2.60058
head 1.68456 -0.741189 1.03677
rclavicle -2.90723e-015 -3.71727e-014
rhumerus -38.4699 -21.8742 -75.2716
rradius 30.8645
rwrist -1.08048
rhand -7.98001 -51.1025
rfingers 7.12502
rthumb 17.9281 -80.2962
lclavicle -2.90723e-015 -3.71727e-014
lhumerus -32.5005 5.90231 79.8287
lradius 23.0799
lwrist -4.78723
lhand -20.4767 -11.6813
lfingers 7.12502
lthumb 5.87957 18.2171
rfemur -23.1337 5.24972 20.1172
rtibia 5.57401
rfoot -18.4387 -4.4391
rtoes -21.7172
lfemur -25.0247 -7.70282 -21.8378
ltibia 8.59083
lfoot -7.01324 1.39115
ltoes -30.516
18
root 16.6123 19.6827 20.7248 -152.914 -3.95266 177.542
lowerback -30.3426 -2.12524 -6.99523
upperback -1.58828 -1.12937 0.116124
thorax 14.2429 -1.24899 3.39576
lowerneck -4.94732 -1.14138 -1.48162
upperneck 2.60525 -1.53198 2.52026
head 1.68832 -0.728032 0.997323
rclavicle 5.11871e-015 1.2921e-014
rhumerus -38.4635 -21.9719 -75.2372
rradius 30.7733
rwrist -1.06898
rhand -8.0704 -51.1142
rfingers 7.12502
rthumb 17.8411 -80.3158
lclavicle 5.11871e-015 1.2921e-014
lhumerus -32.4965 5.74702 79.874
lradius 23.2017
lwrist -4.73036
lhand -20.3798 -11.7079
lfingers 7.12502
lthumb 5.97311 18.1879
rfemur -23.1607 5.28492 20.0812
rtibia 5.55114
rfoot -17.6434 -4.3848
rtoes -22.2334
lfemur -25.0191 -7.73331 -21.8441
ltibia 8.51207
lfoot -6.98276 1.47015
ltoes -30.579
19
root 16.6134 19.6822 20.7255 -152.899 -3.95238 177.55
lowerback -30.3632 -2.10612 -6.97267
upperback -1.59914 -1.10955 0.0832041
thorax 14.236 -1.23876 3.35488
lowerneck -5.09693 -1.09031 -1.34675
upperneck 2.59193 -1.46816 2.42997
head 1.70642 -0.69606 0.947103
rclavicle -5.71506e-016 2.98177e-015
rhumerus -38.4562 -22.0548 -75.2736
rradius 30.7656
rwrist -0.93592
rhand -8.05415 -51.198
rfingers 7.12502
rthumb 17.8567 -80.3982
lclavicle -5.71506e-016 2.98177e-015
lhumerus -32.4789 5.53242 79.8977
lradius 23.3406
lwrist -4.55458
lhand -20.4693 -11.9065
lfingers 7.12502
lthumb 5.88673 17.9917
rfemur -23.1518 5.24564 20.1077
rtibia 5.51188
rfoot -18.7217 -4.32791
rtoes -19.9441
lfemur -25.0282 -7.77104 -21.8199
ltibia 8.51792
lfoot -7.45229 1.49564
ltoes -34.8853
20
root 16.6136 19.6827 20.724 -152.975 -3.95669 177.523
lowerback -30.346 -2.10606 -6.98722
upperback -1.55954 -1.09426 0.0613684
thorax 14.2724 -1.23141 3.34582
lowerneck -5.18802 -1.06168 -1.2753
upperneck 2.58056 -1.43204 2.37644
head 1.7167 -0.678086 0.918787
rclavicle -1.28216e-014 -1.86858e-014
rhumerus -38.4284 -21.9714 -75.3706
rradius 30.8879
rwrist -0.969769
rhand -7.8667 -51.2783
rfingers 7.12502
rthumb 18.0371 -80.462
lclavicle -1.28216e-014 -1.86858e-014
lhumerus -32.4997 5.30077 79.9744
lradius 23.5559
lwrist -4.38737
lhand -20.511 -12.0208
lfingers 7.12502
lthumb 5.84647 17.8785
rfemur -23.0472 5.26217 20.0759
rtibia 5.5086
rfoot -18.4439 -4.39352
rtoes -21.4036
lfemur -24.906 -7.83321 -21.8502
ltibia 8.49406
lfoot -7.09918 1.52865
ltoes -30.426
21
root 16.6132 19.6836 20.7235 -153.032 -3.95144 177.468
lowerback -30.4005 -2.12604 -7.03018
upperback -1.48404 -1.08652 0.0503121
thorax 14.384 -1.23119 3.35928
lowerneck -5.2396 -1.05392 -1.30241
upperneck 2.5552 -1.41992 2.39267
head 1.71798 -0.671875 0.928827
rclavicle 1.20762e-014 -2.00773e-014
rhumerus -38.3008 -21.8591 -75.4772
rradius 30.9994
rwrist -1.05585
rhand -7.737 -51.6359
rfingers 7.12502
rthumb 18.1619 -80.808
lclavicle 1.20762e-014 -2.00773e-014
lhumerus -32.457 5.23302 80.0409
lradius 23.7337
lwrist -4.39808
lhand -20.4938 -11.9873
lfingers 7.12502
lthumb 5.86305 17.9116
rfemur -22.9673 5.22197 20.0213
rtibia 5.49676
rfoot -17.7485 -4.43417
rtoes -22.9537
lfemur -24.831 -7.89921 -21.9143
ltibia 8.47933
lfoot -7.15235 1.60056
ltoes -30.6315
22
root 16.6146 19.6844 20.727 -153.003 -3.95517 177.447
lowerback -30.4766 -2.16949 -7.0698
upperback -1.45547 -1.12393 0.0752022
thorax 14.4563 -1.25293 3.39099
lowerneck -5.18579 -1.051 -1.39554
upperneck 2.57499 -1.41359 2.4739
head 1.71683 -0.668098 0.970949
rclavicle -2.37299e-014 7.95139e-015
rhumerus -38.1815 -21.7798 -75.5164
rradius 31.0389
rwrist -1.00352
rhand -7.60365 -52.0606
rfingers 7.12502
rthumb 18.2902 -81.2207
lclavicle -2.37299e-014 7.95139e-015
lhumerus -32.3403 5.33452 80.064
lradius 23.7546
lwrist -4.47711
lhand -20.4627 -12.06
lfingers 7.12502
lthumb 5.89312 17.838
rfemur -22.9849 5.08072 20.0374
rtibia 5.44764
rfoot -18.7867 -4.31938
rtoes -20.5254
lfemur -24.909 -7.87227 -21.9358
ltibia 8.51388
lfoot -7.54792 1.58839
ltoes -35.4933
23
root 16.6161 19.6851 20.729 -152.985 -3.93287 177.437
lowerback -30.4889 -2.17356 -7.08261
upperback -1.48131 -1.12958 0.0713189
thorax 14.4319 -1.25696 3.39069
lowerneck -5.08288 -1.05299 -1.43599
upperneck 2.60288 -1.41619 2.51342
head 1.70856 -0.669356 0.990593
rclavicle -7.37988e-015 -4.79071e-014
rhumerus -38.1868 -21.7705 -75.515
rradius 31.0214
rwrist -0.924428
rhand -7.63164 -52.1073
rfingers 7.12502
rthumb 18.2632 -81.27
lclavicle -7.37988e-015 -4.79071e-014
lhumerus -32.2832 5.3085 80.0713
lradius 23.7345
lwrist -4.44554
lhand -20.5877 -12.2325
lfingers 7.12502
lthumb 5.77243 17.6689
rfemur -22.982 5.00054 20.0347
rtibia 5.35132
rfoot -18.3303 -4.18165
rtoes -21.2365
lfemur -24.9425 -7.79937 -21.9619
ltibia 8.51898
lfoot -7.01401 1.50186
ltoes -31.533
24
root 16.6168 19.6848 20.7301 -152.972 -3.87637 177.455
lowerback -30.4968 -2.15189 -7.06958
upperback -1.4999 -1.1084 0.0614285
thorax 14.4108 -1.24701 3.38098
lowerneck -5.17486 -1.01296 -1.34493
upperneck 2.56449 -1.3642 2.42651
head 1.70924 -0.644056 0.94871
rclavicle -1.77415e-014 2.0276e-014
rhumerus -38.1665 -21.7639 -75.5567
rradius 31.0129
rwrist -0.938459
rhand -7.82388 -52.0584
rfingers 7.12502
rthumb 18.0783 -81.2383
lclavicle -1.77415e-014 2.0276e-014
lhumerus -32.2853 5.27795 80.0802
lradius 23.8292
lwrist -4.40466
lhand -20.7535 -12.2032
lfingers 7.12502
lthumb 5.61235 17.7025
rfemur -23.0235 5.15601 19.9995
rtibia 5.35277
rfoot -17.638 -4.23515
rtoes -22.0307
lfemur -24.9601 -7.74713 -21.9532
ltibia 8.52593
lfoot -7.04116 1.48034
ltoes -31.0559
25
root 16.6176 19.6838 20.7325 -152.943 -3.86889 177.497
lowerback -30.5015 -2.144 -7.06446
upperback -1.50766 -1.10467 0.0903487
thorax 14.4044 -1.24576 3.41127
lowerneck -5.40162 -0.941951 -1.23125
upperneck 2.53554 -1.27188 2.32553
head 1.73597 -0.598158 0.899715
rclavicle -3.03147e-015 8.74653e-015
rhumerus -38.1479 -21.8148 -75.5017
rradius 31.0293
rwrist -0.987856
rhand -7.7671 -51.8769
rfingers 7.12502
rthumb 18.1329 -81.0517
lclavicle -3.03147e-015 8.74653e-015
lhumerus -32.2886 5.2113 80.1618
lradius 23.9966
lwrist -4.31595
lhand -20.7881 -12.0214
lfingers 7.12502
lthumb 5.57898 17.8851
rfemur -23.1003 5.30532 20.0213
rtibia 5.43207
rfoot -18.7141 -4.32197
rtoes -19.1133
lfemur -25.0228 -7.70616 -21.898
ltibia 8.58047
lfoot -7.55421 1.50106
ltoes -35.0737
26
root 16.6181 19.6844 20.7349 -152.96 -3.90944 177.491
lowerback -30.475 -2.11715 -7.02164
upperback -1.50809 -1.07761 0.0284379
thorax 14.3871 -1.22879 3.33204
lowerneck -5.47355 -0.881023 -1.10107
upperneck 2.53634 -1.19761 2.26494
head 1.7456 -0.560969 0.86044
rclavicle 5.71506e-015 2.38542e-014
rhumerus -38.2254 -21.9126 -75.5168
rradius 31.0873
rwrist -1.06388
rhand -7.65993 -51.5325
rfingers 7.12502
rthumb 18.236 -80.6977
lclavicle 5.71506e-015 2.38542e-014
lhumerus -32.2399 5.08953 80.1234
lradius 24.0981
lwrist -4.26458
lhand -20.6706 -12.1235
lfingers 7.12502
lthumb 5.69238 17.7801
rfemur -23.0876 5.24023 20.0358
rtibia 5.45554
rfoot -18.3315 -4.30126
rtoes -20.609
lfemur -25.0332 -7.71049 -21.9004
ltibia 8.61808
lfoot -7.11133 1.53012
ltoes -31.1943
27
root 16.6191 19.6854 20.7355 -153.004 -3.92079 177.449
lowerback -30.4521 -2.11005 -7.08132
upperback -1.48782 -1.04054 -0.00497137
thorax 14.3956 -1.21453 3.34331
lowerneck -5.4011 -0.915758 -1.10215
upperneck 2.55849 -1.24654 2.31087
head 1.74129 -0.584672 0.873723
rclavicle 1.2424e-016 2.72335e-014
rhumerus -38.2626 -21.7829 -75.6309
rradius 31.2423
rwrist -1.34257
rhand -7.71752 -51.6781
rfingers 7.12502
rthumb 18.1806 -80.8484
lclavicle 1.2424e-016 2.72335e-014
lhumerus -32.1414 4.98774 80.1481
lradius 24.1419
lwrist -4.14284
lhand -20.5617 -12.419
lfingers 7.12502
lthumb 5.79754 17.4817
rfemur -23.0511 5.20185 19.9999
rtibia 5.48604
rfoot -17.5902 -4.28677
rtoes -21.713
lfemur -24.9992 -7.75748 -21.9373
ltibia 8.63741
lfoot -7.1309 1.52947
ltoes -31.0755
28
root 16.6201 19.6856 20.7367 -153.027 -3.8873 177.429
lowerback -30.4467 -2.1084 -7.11904
upperback -1.47173 -1.02071 -0.0210509
thorax 14.4093 -1.2076 3.35426
lowerneck -5.2916 -0.96224 -1.15694
upperneck 2.56373 -1.30924 2.40156
head 1.72632 -0.61516 0.91
rclavicle -1.31198e-014 -2.04748e-014
rhumerus -38.2417 -21.6622 -75.7365
rradius 31.3564
rwrist -1.49915
rhand -7.71351 -51.8175
rfingers 7.12502
rthumb 18.1845 -80.9875
lclavicle -1.31198e-014 -2.04748e-014
lhumerus -32.1316 4.72087 80.2468
lradius 24.2701
lwrist -3.75147
lhand -20.5393 -12.3845
lfingers 7.12502
lthumb 5.8192 17.5156
rfemur -23.0486 5.18306 19.986
rtibia 5.50516
rfoot -18.7852 -4.23036
rtoes -19.3748
lfemur -24.9696 -7.85468 -21.9325
ltibia 8.63946
lfoot -7.62574 1.60489
ltoes -34.9669
29
root 16.6205 19.6848 20.739 -153.02 -3.861 177.446
lowerback -30.4682 -2.1136 -7.09006
upperback -1.45552 -1.03359 -0.0190822
thorax 14.4394 -1.21204 3.33522
lowerneck -5.32053 -0.928942 -1.16521
upperneck 2.55913 -1.26539 2.4269
head 1.72955 -0.592811 0.92078
rclavicle -1.0635e-014 -1.66979e-014
rhumerus -38.1813 -21.5466 -75.8186
rradius 31.4232
rwrist -1.51579
rhand -7.70664 -51.5838
rfingers 7.12502
rthumb 18.1911 -80.7531
lclavicle -1.0635e-014 -1.66979e-014
lhumerus -32.0859 4.59511 80.3003
lradius 24.3296
lwrist -3.52382
lhand -20.5776 -12.3703
lfingers 7.12502
lthumb 5.78219 17.5308
rfemur -23.0399 5.20304 19.9969
rtibia 5.41662
rfoot -18.4002 -4.23551
rtoes -21.0827
lfemur -24.9848 -7.92606 -21.8928
ltibia 8.62549
lfoot -7.15776 1.708
ltoes -30.8994
30
root 16.621 19.6836 20.7401 -153.021 -3.85978 177.462
lowerback -30.5063 -2.11372 -7.06179
upperback -1.43197 -1.03743 -0.0140578
thorax 14.4846 -1.21281 3.32325
lowerneck -5.4398 -0.87968 -1.12529
upperneck 2.54744 -1.19976 2.37493
head 1.74476 -0.560276 0.899406
rclavicle -1.70706e-014 -2.70347e-014
rhumerus -38.1412 -21.4447 -75.8794
rradius 31.4988
rwrist -1.57901
rhand -7.75612 -51.5532
rfingers 7.12502
rthumb 18.1435 -80.727
lclavicle -1.70706e-014 -2.70347e-014
lhumerus -31.9664 4.62705 80.3057
lradius 24.2897
lwrist -3.5336
lhand -20.6461 -12.5291
lfingers 7.12502
lthumb 5.71609 17.3738
rfemur -23.0381 5.20871 20.0109
rtibia 5.38333
rfoot -17.5456 -4.2282
rtoes -22.057
lfemur -25.0094 -7.86584 -21.889
ltibia 8.62829
lfoot -7.10038 1.64596
ltoes -30.4788
